Glegoo-deva-regular-vfb2ufo.ufo
<glyph name="one" format="1">
  <advance width="580"/>
  <unicode hex="0031"/>
  <outline>
    <contour>
      <point x="133" y="0" type="line" name="hr00"/>
      <point x="485" y="0" type="line"/>
      <point x="485" y="59" type="line"/>
      <point x="133" y="59" type="line"/>
    </contour>
    <contour>
      <point x="345" y="30" type="line"/>
      <point x="345" y="670" type="line"/>
      <point x="293" y="670" type="line"/>
      <point x="273" y="607" type="line"/>
      <point x="273" y="30" type="line"/>
    </contour>
    <contour>
      <point x="138" y="575" type="line"/>
      <point x="293" y="575" type="line"/>
      <point x="293" y="670" type="line"/>
      <point x="258" y="645"/>
      <point x="205" y="627"/>
      <point x="138" y="620" type="curve"/>
    </contour>
  </outline>
</glyph>
<glyph name="C" format="1">
  <advance width="619"/>
  <unicode hex="0043"/>
  <outline>
    <contour>
      <point x="326" y="744" type="curve" smooth="yes"/>
      <point x="96" y="744" smooth="yes"/>
      <point x="60" y="602" smooth="yes"/>
      <point x="60" y="365" type="curve" smooth="yes"/>
      <point x="60" y="130" smooth="yes"/>
      <point x="86" y="-14" smooth="yes"/>
      <point x="336" y="-14" type="curve" smooth="yes"/>
      <point x="512" y="-14"/>
      <point x="553" y="77"/>
      <point x="562" y="209" type="curve"/>
      <point x="503" y="212" type="line"/>
      <point x="500" y="120" smooth="yes"/>
      <point x="467" y="46" smooth="yes"/>
      <point x="336" y="46" type="curve" smooth="yes"/>
      <point x="141" y="46" smooth="yes"/>
      <point x="132" y="168" smooth="yes"/>
      <point x="132" y="365" type="curve" smooth="yes"/>
      <point x="132" y="562" smooth="yes"/>
      <point x="152" y="684" smooth="yes"/>
      <point x="326" y="684" type="curve" smooth="yes"/>
      <point x="461" y="684"/>
      <point x="501" y="616"/>
      <point x="508" y="514" type="curve"/>
      <point x="539" y="514" type="line"/>
      <point x="539" y="644" smooth="yes"/>
      <point x="488" y="744" smooth="yes"/>
    </contour>
    <contour>
      <point x="508" y="730" type="line" name="hr01"/>
      <point x="508" y="514" type="line"/>
      <point x="562" y="514" type="line"/>
      <point x="562" y="730" type="line"/>
    </contour>
  </outline>
</glyph>
<glyph name="G" format="1">
  <advance width="672"/>
  <unicode hex="0047"/>
  <outline>
    <contour>
      <point x="531" y="0" type="line"/>
      <point x="572" y="0" type="line"/>
      <point x="572" y="365" type="line"/>
      <point x="508" y="365" type="line"/>
      <point x="508" y="177" type="line"/>
    </contour>
    <contour>
      <point x="327" y="-14" type="curve" smooth="yes" name="hr01"/>
      <point x="507" y="-14"/>
      <point x="549" y="108"/>
      <point x="558" y="240" type="curve"/>
      <point x="508" y="212" type="line"/>
      <point x="505" y="120" smooth="yes"/>
      <point x="461" y="46" smooth="yes"/>
      <point x="327" y="46" type="curve" smooth="yes"/>
      <point x="141" y="46" smooth="yes"/>
      <point x="132" y="158" smooth="yes"/>
      <point x="132" y="365" type="curve" smooth="yes"/>
      <point x="132" y="562" smooth="yes"/>
      <point x="152" y="684" smooth="yes"/>
      <point x="337" y="684" type="curve" smooth="yes"/>
      <point x="471" y="684"/>
      <point x="506" y="606"/>
      <point x="513" y="514" type="curve"/>
      <point x="543" y="514" type="line"/>
      <point x="543" y="644" smooth="yes"/>
      <point x="489" y="744" smooth="yes"/>
      <point x="337" y="744" type="curve" smooth="yes"/>
      <point x="96" y="744" smooth="yes"/>
      <point x="60" y="602" smooth="yes"/>
      <point x="60" y="365" type="curve" smooth="yes"/>
      <point x="60" y="130" smooth="yes"/>
      <point x="76" y="-14" smooth="yes"/>
    </contour>
    <contour>
      <point x="513" y="730" type="line" name="hr02"/>
      <point x="513" y="514" type="line"/>
      <point x="567" y="514" type="line"/>
      <point x="567" y="730" type="line"/>
    </contour>
    <contour>
      <point x="394" y="315" type="line"/>
      <point x="572" y="315" type="line"/>
      <point x="572" y="365" type="line"/>
      <point x="394" y="365" type="line"/>
    </contour>
  </outline>
</glyph>
<glyph name="O" format="1">
  <advance width="685"/>
  <unicode hex="004F"/>
  <outline>
    <contour>
      <point x="342" y="-14" type="curve" smooth="yes" name="hr00"/>
      <point x="596" y="-14" smooth="yes"/>
      <point x="625" y="128" smooth="yes"/>
      <point x="625" y="365" type="curve" smooth="yes"/>
      <point x="625" y="600" smooth="yes"/>
      <point x="596" y="744" smooth="yes"/>
      <point x="342" y="744" type="curve" smooth="yes"/>
      <point x="87" y="744" smooth="yes"/>
      <point x="60" y="600" smooth="yes"/>
      <point x="60" y="365" type="curve" smooth="yes"/>
      <point x="60" y="128" smooth="yes"/>
      <point x="87" y="-14" smooth="yes"/>
    </contour>
    <contour>
      <point x="342" y="46" type="curve" smooth="yes"/>
      <point x="152" y="46" smooth="yes"/>
      <point x="132" y="168" smooth="yes"/>
      <point x="132" y="365" type="curve" smooth="yes"/>
      <point x="132" y="562" smooth="yes"/>
      <point x="152" y="684" smooth="yes"/>
      <point x="342" y="684" type="curve" smooth="yes"/>
      <point x="531" y="684" smooth="yes"/>
      <point x="553" y="562" smooth="yes"/>
      <point x="553" y="365" type="curve" smooth="yes"/>
      <point x="553" y="168" smooth="yes"/>
      <point x="531" y="46" smooth="yes"/>
    </contour>
  </outline>
</glyph>
<glyph name="U" format="1">
  <advance width="750"/>
  <unicode hex="0055"/>
  <outline>
    <contour>
      <point x="563" y="730" type="line" name="hr00"/>
      <point x="563" y="241" type="line" smooth="yes"/>
      <point x="563" y="68" smooth="yes"/>
      <point x="472" y="47" smooth="yes"/>
      <point x="374" y="47" type="curve" smooth="yes"/>
      <point x="278" y="47" smooth="yes"/>
      <point x="187" y="68" smooth="yes"/>
      <point x="187" y="241" type="curve" smooth="yes"/>
      <point x="187" y="730" type="line"/>
      <point x="115" y="730" type="line"/>
      <point x="115" y="241" type="line" smooth="yes"/>
      <point x="115" y="10" smooth="yes"/>
      <point x="241" y="-14" smooth="yes"/>
      <point x="374" y="-14" type="curve" smooth="yes"/>
      <point x="509" y="-14" smooth="yes"/>
      <point x="635" y="10" smooth="yes"/>
      <point x="635" y="241" type="curve" smooth="yes"/>
      <point x="635" y="730" type="line"/>
    </contour>
    <contour>
      <point x="55" y="680" type="line"/>
      <point x="247" y="680" type="line"/>
      <point x="247" y="730" type="line"/>
      <point x="55" y="730" type="line"/>
    </contour>
    <contour>
      <point x="503" y="680" type="line"/>
      <point x="695" y="680" type="line"/>
      <point x="695" y="730" type="line"/>
      <point x="503" y="730" type="line"/>
    </contour>
  </outline>
</glyph>
<glyph name="W" format="1">
  <advance width="889"/>
  <unicode hex="0057"/>
  <outline>
    <contour>
      <point x="279" y="0" type="line" name="hr00"/>
      <point x="119" y="730" type="line"/>
      <point x="45" y="730" type="line"/>
      <point x="210" y="0" type="line"/>
    </contour>
    <contour>
      <point x="315" y="0" type="line"/>
      <point x="475" y="730" type="line"/>
      <point x="409" y="730" type="line"/>
      <point x="250" y="0" type="line"/>
    </contour>
    <contour>
      <point x="679" y="0" type="line"/>
      <point x="844" y="730" type="line"/>
      <point x="770" y="730" type="line"/>
      <point x="610" y="0" type="line"/>
    </contour>
    <contour>
      <point x="639" y="0" type="line"/>
      <point x="480" y="730" type="line"/>
      <point x="414" y="730" type="line"/>
      <point x="574" y="0" type="line"/>
    </contour>
    <contour>
      <point x="15" y="680" type="line"/>
      <point x="197" y="680" type="line"/>
      <point x="197" y="730" type="line"/>
      <point x="15" y="730" type="line"/>
    </contour>
    <contour>
      <point x="692" y="680" type="line"/>
      <point x="874" y="680" type="line"/>
      <point x="874" y="730" type="line"/>
      <point x="692" y="730" type="line"/>
    </contour>
  </outline>
</glyph>
<glyph name="Y" format="1">
  <advance width="582"/>
  <unicode hex="0059"/>
  <outline>
    <contour>
      <point x="255" y="277" type="line" name="hr00"/>
      <point x="255" y="0" type="line"/>
      <point x="327" y="0" type="line"/>
      <point x="327" y="277" type="line"/>
    </contour>
    <contour>
      <point x="325" y="253" type="line"/>
      <point x="104" y="730" type="line"/>
      <point x="30" y="730" type="line"/>
      <point x="255" y="255" type="line"/>
    </contour>
    <contour>
      <point x="327" y="255" type="line"/>
      <point x="552" y="730" type="line"/>
      <point x="478" y="730" type="line"/>
      <point x="257" y="253" type="line"/>
    </contour>
    <contour>
      <point x="10" y="680" type="line"/>
      <point x="182" y="680" type="line"/>
      <point x="182" y="730" type="line"/>
      <point x="10" y="730" type="line"/>
    </contour>
    <contour>
      <point x="400" y="680" type="line"/>
      <point x="572" y="680" type="line"/>
      <point x="572" y="730" type="line"/>
      <point x="400" y="730" type="line"/>
    </contour>
    <contour>
      <point x="185" y="0" type="line"/>
      <point x="397" y="0" type="line"/>
      <point x="397" y="50" type="line"/>
      <point x="185" y="50" type="line"/>
    </contour>
  </outline>
</glyph>
<glyph name="c" format="1">
  <advance width="567"/>
  <unicode hex="0063"/>
  <outline>
    <contour>
      <point x="290" y="586" type="curve" smooth="yes"/>
      <point x="89" y="586" smooth="yes"/>
      <point x="60" y="446" smooth="yes"/>
      <point x="60" y="286" type="curve" smooth="yes"/>
      <point x="60" y="131" smooth="yes"/>
      <point x="83" y="-14" smooth="yes"/>
      <point x="295" y="-14" type="curve" smooth="yes"/>
      <point x="463" y="-14"/>
      <point x="496" y="58"/>
      <point x="504" y="162" type="curve"/>
      <point x="447" y="165" type="line"/>
      <point x="442" y="92" smooth="yes"/>
      <point x="420" y="45" smooth="yes"/>
      <point x="294" y="45" type="curve" smooth="yes"/>
      <point x="139" y="45" smooth="yes"/>
      <point x="130" y="169" smooth="yes"/>
      <point x="130" y="286" type="curve" smooth="yes"/>
      <point x="130" y="399" smooth="yes"/>
      <point x="141" y="527" smooth="yes"/>
      <point x="289" y="527" type="curve" smooth="yes"/>
      <point x="397" y="527"/>
      <point x="441" y="471"/>
      <point x="452" y="370" type="curve"/>
      <point x="485" y="370" type="line" name="hr01"/>
      <point x="484" y="494" smooth="yes"/>
      <point x="425" y="586" smooth="yes"/>
    </contour>
    <contour>
      <point x="447" y="572" type="line" name="hr02"/>
      <point x="452" y="370" type="line"/>
      <point x="498" y="370" type="line"/>
      <point x="498" y="572" type="line"/>
    </contour>
  </outline>
</glyph>
<glyph name="h" format="1">
  <advance width="681"/>
  <unicode hex="0068"/>
  <outline>
    <contour>
      <point x="190" y="750" type="line" name="hr00"/>
      <point x="120" y="750" type="line"/>
      <point x="120" y="0" type="line"/>
      <point x="190" y="0" type="line"/>
    </contour>
    <contour>
      <point x="167" y="433" type="line"/>
      <point x="232" y="492" smooth="yes"/>
      <point x="305" y="527" smooth="yes"/>
      <point x="385" y="527" type="curve" smooth="yes"/>
      <point x="461" y="527" smooth="yes"/>
      <point x="491" y="491" smooth="yes"/>
      <point x="491" y="408" type="curve" smooth="yes"/>
      <point x="491" y="0" type="line"/>
      <point x="561" y="0" type="line"/>
      <point x="561" y="407" type="line" smooth="yes"/>
      <point x="561" y="528" smooth="yes"/>
      <point x="515" y="586" smooth="yes"/>
      <point x="396" y="586" type="curve" smooth="yes"/>
      <point x="296" y="586"/>
      <point x="202" y="530"/>
      <point x="153" y="482" type="curve"/>
    </contour>
    <contour>
      <point x="60" y="0" type="line"/>
      <point x="250" y="0" type="line"/>
      <point x="250" y="50" type="line"/>
      <point x="60" y="50" type="line"/>
    </contour>
    <contour>
      <point x="60" y="700" type="line"/>
      <point x="120" y="700" type="line"/>
      <point x="120" y="750" type="line"/>
      <point x="60" y="750" type="line"/>
    </contour>
    <contour>
      <point x="431" y="0" type="line"/>
      <point x="621" y="0" type="line"/>
      <point x="621" y="50" type="line"/>
      <point x="431" y="50" type="line"/>
    </contour>
  </outline>
</glyph>
<glyph name="s" format="1">
  <advance width="568"/>
  <unicode hex="0073"/>
  <outline>
    <contour>
      <point x="301" y="-14" type="curve" smooth="yes"/>
      <point x="446" y="-14" smooth="yes"/>
      <point x="498" y="52" smooth="yes"/>
      <point x="498" y="146" type="curve" smooth="yes"/>
      <point x="498" y="246" smooth="yes"/>
      <point x="440" y="278" smooth="yes"/>
      <point x="327" y="309" type="curve" smooth="yes"/>
      <point x="249" y="330" type="line" smooth="yes"/>
      <point x="173" y="350" smooth="yes"/>
      <point x="143" y="373" smooth="yes"/>
      <point x="143" y="429" type="curve" smooth="yes" name="hr01"/>
      <point x="143" y="482" smooth="yes"/>
      <point x="174" y="527" smooth="yes"/>
      <point x="261" y="527" type="curve" smooth="yes"/>
      <point x="372" y="527"/>
      <point x="418" y="506"/>
      <point x="430" y="370" type="curve"/>
      <point x="460" y="370" type="line" name="hr02"/>
      <point x="459" y="534" smooth="yes"/>
      <point x="385" y="586" smooth="yes"/>
      <point x="261" y="586" type="curve" smooth="yes"/>
      <point x="132" y="586" smooth="yes"/>
      <point x="73" y="518" smooth="yes"/>
      <point x="73" y="428" type="curve" smooth="yes"/>
      <point x="73" y="320" smooth="yes"/>
      <point x="136" y="291" smooth="yes"/>
      <point x="246" y="262" type="curve" smooth="yes"/>
      <point x="324" y="241" type="line" smooth="yes"/>
      <point x="403" y="220" smooth="yes"/>
      <point x="428" y="193" smooth="yes"/>
      <point x="428" y="146" type="curve" smooth="yes"/>
      <point x="428" y="79" smooth="yes"/>
      <point x="384" y="45" smooth="yes"/>
      <point x="292" y="45" type="curve" smooth="yes"/>
      <point x="188" y="45"/>
      <point x="132" y="101"/>
      <point x="121" y="202" type="curve" name="hr03"/>
      <point x="93" y="202" type="line" name="hr04"/>
      <point x="94" y="58" smooth="yes"/>
      <point x="177" y="-14" smooth="yes"/>
    </contour>
    <contour>
      <point x="126" y="0" type="line" name="hr05"/>
      <point x="121" y="202" type="line"/>
      <point x="75" y="202" type="line"/>
      <point x="75" y="0" type="line"/>
    </contour>
    <contour>
      <point x="425" y="572" type="line"/>
      <point x="431" y="370" type="line"/>
      <point x="476" y="370" type="line" name="hr06"/>
      <point x="476" y="572" type="line"/>
    </contour>
  </outline>
</glyph>
<glyph name="braceright" format="1">
  <advance width="294"/>
  <unicode hex="007D"/>
  <outline>
    <contour>
      <point x="173" y="338" type="line" name="hr00"/>
      <point x="148" y="338" smooth="yes"/>
      <point x="124" y="362" smooth="yes"/>
      <point x="124" y="404" type="curve" smooth="yes"/>
      <point x="124" y="446" smooth="yes"/>
      <point x="132" y="476" smooth="yes"/>
      <point x="132" y="526" type="curve" smooth="yes"/>
      <point x="132" y="612"/>
      <point x="104" y="674"/>
      <point x="5" y="674" type="curve"/>
      <point x="5" y="736" type="line"/>
      <point x="158" y="736" smooth="yes"/>
      <point x="206" y="646" smooth="yes"/>
      <point x="206" y="533" type="curve" smooth="yes"/>
      <point x="206" y="487" smooth="yes"/>
      <point x="198" y="449" smooth="yes"/>
      <point x="198" y="409" type="curve" smooth="yes"/>
      <point x="198" y="369"/>
      <point x="245" y="360"/>
      <point x="273" y="360" type="curve"/>
      <point x="273" y="310" type="line"/>
      <point x="245" y="310" smooth="yes"/>
      <point x="198" y="301" smooth="yes"/>
      <point x="198" y="261" type="curve" smooth="yes"/>
      <point x="198" y="221" smooth="yes"/>
      <point x="206" y="183" smooth="yes"/>
      <point x="206" y="137" type="curve" smooth="yes"/>
      <point x="206" y="24"/>
      <point x="158" y="-66"/>
      <point x="5" y="-66" type="curve"/>
      <point x="5" y="-4" type="line"/>
      <point x="104" y="-4" smooth="yes"/>
      <point x="132" y="58" smooth="yes"/>
      <point x="132" y="144" type="curve" smooth="yes"/>
      <point x="132" y="194" smooth="yes"/>
      <point x="124" y="224" smooth="yes"/>
      <point x="124" y="266" type="curve" smooth="yes"/>
      <point x="124" y="308"/>
      <point x="148" y="332"/>
      <point x="173" y="332" type="curve"/>
    </contour>
  </outline>
</glyph>
<glyph name="asciitilde" format="1">
  <advance width="580"/>
  <unicode hex="007E"/>
  <outline>
    <contour>
      <point x="94" y="288" type="line" name="hr00"/>
      <point x="121" y="272" smooth="yes"/>
      <point x="148" y="266" smooth="yes"/>
      <point x="176" y="266" type="curve" smooth="yes"/>
      <point x="251" y="266" smooth="yes"/>
      <point x="328" y="309" smooth="yes"/>
      <point x="404" y="309" type="curve" smooth="yes"/>
      <point x="432" y="309"/>
      <point x="459" y="303"/>
      <point x="486" y="288" type="curve"/>
      <point x="486" y="348" type="line"/>
      <point x="459" y="362" smooth="yes"/>
      <point x="431" y="367" smooth="yes"/>
      <point x="404" y="367" type="curve" smooth="yes"/>
      <point x="328" y="367" smooth="yes"/>
      <point x="251" y="324" smooth="yes"/>
      <point x="176" y="324" type="curve" smooth="yes"/>
      <point x="148" y="324"/>
      <point x="121" y="329"/>
      <point x="94" y="348" type="curve"/>
    </contour>
  </outline>
</glyph>
<glyph name="currency" format="1">
  <advance width="582"/>
  <unicode hex="00A4"/>
  <outline>
    <contour>
      <point x="287" y="190" type="curve" smooth="yes" name="hr00"/>
      <point x="166" y="190" smooth="yes"/>
      <point x="160" y="264" smooth="yes"/>
      <point x="160" y="335" type="curve" smooth="yes"/>
      <point x="160" y="406" smooth="yes"/>
      <point x="167" y="480" smooth="yes"/>
      <point x="304" y="480" type="curve" smooth="yes"/>
      <point x="426" y="480" smooth="yes"/>
      <point x="432" y="406" smooth="yes"/>
      <point x="432" y="335" type="curve" smooth="yes"/>
      <point x="432" y="264" smooth="yes"/>
      <point x="425" y="190" smooth="yes"/>
    </contour>
    <contour>
      <point x="304" y="539" type="curve" smooth="yes"/>
      <point x="117" y="539" smooth="yes"/>
      <point x="97" y="440" smooth="yes"/>
      <point x="97" y="335" type="curve" smooth="yes"/>
      <point x="97" y="230" smooth="yes"/>
      <point x="116" y="131" smooth="yes"/>
      <point x="287" y="131" type="curve" smooth="yes"/>
      <point x="474" y="131" smooth="yes"/>
      <point x="495" y="230" smooth="yes"/>
      <point x="495" y="335" type="curve" smooth="yes"/>
      <point x="495" y="440" smooth="yes"/>
      <point x="476" y="539" smooth="yes"/>
    </contour>
    <contour>
      <point x="542" y="551" type="line"/>
      <point x="507" y="586" type="line"/>
      <point x="406" y="485" type="line"/>
      <point x="441" y="450" type="line"/>
    </contour>
    <contour>
      <point x="444" y="218" type="line"/>
      <point x="408" y="182" type="line"/>
      <point x="507" y="84" type="line"/>
      <point x="542" y="119" type="line"/>
    </contour>
    <contour>
      <point x="75" y="586" type="line"/>
      <point x="40" y="551" type="line"/>
      <point x="148" y="442" type="line"/>
      <point x="184" y="478" type="line"/>
    </contour>
    <contour>
      <point x="186" y="195" type="line"/>
      <point x="151" y="230" type="line"/>
      <point x="40" y="119" type="line"/>
      <point x="75" y="84" type="line"/>
    </contour>
  </outline>
</glyph>
<glyph name="yen" format="1">
  <advance width="580"/>
  <unicode hex="00A5"/>
  <outline>
    <contour>
      <point x="254" y="298" type="line" name="hr00"/>
      <point x="254" y="0" type="line"/>
      <point x="326" y="0" type="line"/>
      <point x="326" y="298" type="line"/>
    </contour>
    <contour>
      <point x="324" y="276" type="line"/>
      <point x="125" y="670" type="line"/>
      <point x="49" y="670" type="line"/>
      <point x="254" y="276" type="line"/>
    </contour>
    <contour>
      <point x="326" y="276" type="line"/>
      <point x="531" y="670" type="line"/>
      <point x="455" y="670" type="line"/>
      <point x="256" y="276" type="line"/>
    </contour>
    <contour>
      <point x="77" y="226" type="line"/>
      <point x="504" y="226" type="line"/>
      <point x="504" y="276" type="line"/>
      <point x="77" y="276" type="line"/>
    </contour>
    <contour>
      <point x="77" y="356" type="line"/>
      <point x="230" y="356" type="line"/>
      <point x="230" y="406" type="line"/>
      <point x="77" y="406" type="line"/>
    </contour>
    <contour>
      <point x="351" y="356" type="line"/>
      <point x="504" y="356" type="line"/>
      <point x="504" y="406" type="line"/>
      <point x="351" y="406" type="line"/>
    </contour>
  </outline>
</glyph>
<glyph name="copyright" format="1">
  <advance width="727"/>
  <unicode hex="00A9"/>
  <outline>
    <contour>
      <point x="70" y="560" type="curve" smooth="yes" name="hr00"/>
      <point x="70" y="349" smooth="yes"/>
      <point x="152" y="267" smooth="yes"/>
      <point x="363" y="267" type="curve" smooth="yes"/>
      <point x="574" y="267" smooth="yes"/>
      <point x="657" y="349" smooth="yes"/>
      <point x="657" y="560" type="curve" smooth="yes"/>
      <point x="657" y="771" smooth="yes"/>
      <point x="574" y="854" smooth="yes"/>
      <point x="363" y="854" type="curve" smooth="yes"/>
      <point x="152" y="854" smooth="yes"/>
      <point x="70" y="771" smooth="yes"/>
    </contour>
    <contour>
      <point x="118" y="560" type="curve" smooth="yes"/>
      <point x="118" y="740" smooth="yes"/>
      <point x="179" y="811" smooth="yes"/>
      <point x="363" y="811" type="curve" smooth="yes"/>
      <point x="547" y="811" smooth="yes"/>
      <point x="609" y="740" smooth="yes"/>
      <point x="609" y="560" type="curve" smooth="yes"/>
      <point x="609" y="380" smooth="yes"/>
      <point x="547" y="310" smooth="yes"/>
      <point x="363" y="310" type="curve" smooth="yes"/>
      <point x="179" y="310" smooth="yes"/>
      <point x="118" y="380" smooth="yes"/>
    </contour>
    <contour>
      <point x="490" y="656" type="line"/>
      <point x="483" y="728" smooth="yes"/>
      <point x="450" y="769" smooth="yes"/>
      <point x="362" y="769" type="curve" smooth="yes"/>
      <point x="233" y="769" smooth="yes"/>
      <point x="207" y="693" smooth="yes"/>
      <point x="207" y="561" type="curve" smooth="yes"/>
      <point x="207" y="430" smooth="yes"/>
      <point x="227" y="352" smooth="yes"/>
      <point x="363" y="352" type="curve" smooth="yes"/>
      <point x="460" y="352"/>
      <point x="486" y="405"/>
      <point x="491" y="482" type="curve"/>
      <point x="449" y="484" type="line"/>
      <point x="447" y="433" smooth="yes"/>
      <point x="426" y="395" smooth="yes"/>
      <point x="363" y="395" type="curve" smooth="yes"/>
      <point x="269" y="395" smooth="yes"/>
      <point x="259" y="455" smooth="yes"/>
      <point x="259" y="561" type="curve" smooth="yes"/>
      <point x="259" y="667" smooth="yes"/>
      <point x="274" y="727" smooth="yes"/>
      <point x="362" y="727" type="curve" smooth="yes"/>
      <point x="420" y="727"/>
      <point x="442" y="702"/>
      <point x="447" y="653" type="curve"/>
    </contour>
  </outline>
</glyph>
<glyph name="degree" format="1">
  <advance width="425"/>
  <unicode hex="00B0"/>
  <outline>
    <contour>
      <point x="212" y="391" type="curve" smooth="yes" name="hr00"/>
      <point x="116" y="391" smooth="yes"/>
      <point x="111" y="456" smooth="yes"/>
      <point x="111" y="525" type="curve" smooth="yes"/>
      <point x="111" y="594" smooth="yes"/>
      <point x="116" y="659" smooth="yes"/>
      <point x="212" y="659" type="curve" smooth="yes"/>
      <point x="308" y="659" smooth="yes"/>
      <point x="313" y="594" smooth="yes"/>
      <point x="313" y="525" type="curve" smooth="yes"/>
      <point x="313" y="456" smooth="yes"/>
      <point x="308" y="391" smooth="yes"/>
    </contour>
    <contour>
      <point x="212" y="340" type="curve" smooth="yes"/>
      <point x="361" y="340" smooth="yes"/>
      <point x="377" y="430" smooth="yes"/>
      <point x="377" y="525" type="curve" smooth="yes"/>
      <point x="377" y="621" smooth="yes"/>
      <point x="361" y="710" smooth="yes"/>
      <point x="212" y="710" type="curve" smooth="yes"/>
      <point x="64" y="710" smooth="yes"/>
      <point x="48" y="621" smooth="yes"/>
      <point x="48" y="525" type="curve" smooth="yes"/>
      <point x="48" y="430" smooth="yes"/>
      <point x="64" y="340" smooth="yes"/>
    </contour>
  </outline>
</glyph>
<glyph name="ordmasculine" format="1">
  <advance width="425"/>
  <unicode hex="00BA"/>
  <outline>
    <contour>
      <point x="212" y="391" type="curve" smooth="yes" name="hr00"/>
      <point x="107" y="391" smooth="yes"/>
      <point x="101" y="468" smooth="yes"/>
      <point x="101" y="550" type="curve" smooth="yes"/>
      <point x="101" y="632" smooth="yes"/>
      <point x="107" y="709" smooth="yes"/>
      <point x="212" y="709" type="curve" smooth="yes"/>
      <point x="318" y="709" smooth="yes"/>
      <point x="323" y="632" smooth="yes"/>
      <point x="323" y="550" type="curve" smooth="yes"/>
      <point x="323" y="468" smooth="yes"/>
      <point x="318" y="391" smooth="yes"/>
    </contour>
    <contour>
      <point x="212" y="340" type="curve"/>
      <point x="370" y="340" smooth="yes"/>
      <point x="387" y="442" smooth="yes"/>
      <point x="387" y="550" type="curve" smooth="yes"/>
      <point x="387" y="659" smooth="yes"/>
      <point x="370" y="760" smooth="yes"/>
      <point x="212" y="760" type="curve" smooth="yes"/>
      <point x="55" y="760" smooth="yes"/>
      <point x="38" y="659" smooth="yes"/>
      <point x="38" y="550" type="curve" smooth="yes"/>
      <point x="38" y="442" smooth="yes"/>
      <point x="55" y="340" smooth="yes"/>
    </contour>
    <contour>
      <point x="48" y="256" type="line"/>
      <point x="376" y="256" type="line"/>
      <point x="376" y="299" type="line"/>
      <point x="48" y="299" type="line"/>
    </contour>
  </outline>
</glyph>
<glyph name="Eth" format="1">
  <advance width="688"/>
  <unicode hex="00D0"/>
  <outline>
    <contour>
      <point x="130" y="730" type="line" name="hr00"/>
      <point x="130" y="0" type="line"/>
      <point x="202" y="0" type="line"/>
      <point x="202" y="730" type="line"/>
    </contour>
    <contour>
      <point x="202" y="730" type="line"/>
      <point x="202" y="668" type="line"/>
      <point x="345" y="668" type="line" smooth="yes"/>
      <point x="535" y="668" smooth="yes"/>
      <point x="556" y="553" smooth="yes"/>
      <point x="556" y="365" type="curve" smooth="yes"/>
      <point x="556" y="177" smooth="yes"/>
      <point x="535" y="62" smooth="yes"/>
      <point x="345" y="62" type="curve" smooth="yes"/>
      <point x="202" y="62" type="line"/>
      <point x="202" y="0" type="line"/>
      <point x="345" y="0" type="line" smooth="yes"/>
      <point x="600" y="0" smooth="yes"/>
      <point x="628" y="137" smooth="yes"/>
      <point x="628" y="365" type="curve" smooth="yes"/>
      <point x="628" y="591" smooth="yes"/>
      <point x="600" y="730" smooth="yes"/>
      <point x="345" y="730" type="curve" smooth="yes"/>
    </contour>
    <contour>
      <point x="70" y="674" type="line"/>
      <point x="170" y="674" type="line"/>
      <point x="170" y="730" type="line"/>
      <point x="70" y="730" type="line"/>
    </contour>
    <contour>
      <point x="70" y="0" type="line"/>
      <point x="170" y="0" type="line"/>
      <point x="170" y="56" type="line"/>
      <point x="70" y="56" type="line"/>
    </contour>
    <component  base="hyphen" yOffset="47"/>
  </outline>
</glyph>
<glyph name="apostrophe" format="1">
  <advance width="307"/>
  <unicode hex="02BC"/>
  <outline>
    <contour>
      <point x="121" y="779" type="curve" smooth="yes"/>
      <point x="121" y="754" smooth="yes"/>
      <point x="133" y="734" smooth="yes"/>
      <point x="133" y="715" type="curve" smooth="yes"/>
      <point x="133" y="672"/>
      <point x="115" y="655"/>
      <point x="94" y="636" type="curve"/>
      <point x="117" y="609" type="line"/>
      <point x="142" y="630" smooth="yes"/>
      <point x="217" y="684" smooth="yes"/>
      <point x="217" y="779" type="curve" smooth="yes"/>
      <point x="217" y="807" smooth="yes"/>
      <point x="214" y="838" smooth="yes"/>
      <point x="168" y="838" type="curve" smooth="yes"/>
      <point x="124" y="838" smooth="yes"/>
      <point x="121" y="807" smooth="yes"/>
    </contour>
  </outline>
</glyph>
<glyph name="uni02C9" format="1">
  <advance width="354"/>
  <unicode hex="02C9"/>
  <outline>
    <contour>
      <point x="50" y="694" type="line" name="hr00"/>
      <point x="304" y="694" type="line"/>
      <point x="304" y="759" type="line"/>
      <point x="50" y="759" type="line"/>
    </contour>
  </outline>
</glyph>
<glyph name="pi" format="1">
  <advance width="635"/>
  <unicode hex="03C0"/>
  <outline>
    <contour>
      <point x="435" y="572" type="line" name="hr00"/>
      <point x="435" y="0" type="line"/>
      <point x="505" y="0" type="line"/>
      <point x="505" y="572" type="line"/>
    </contour>
    <contour>
      <point x="130" y="572" type="line"/>
      <point x="130" y="0" type="line"/>
      <point x="200" y="0" type="line"/>
      <point x="200" y="572" type="line"/>
    </contour>
    <contour>
      <point x="70" y="522" type="line"/>
      <point x="565" y="522" type="line"/>
      <point x="565" y="572" type="line"/>
      <point x="70" y="572" type="line"/>
    </contour>
  </outline>
</glyph>
<glyph name="candrabindudeva" format="1">
  <advance width="0"/>
  <unicode hex="0901"/>
  <outline>
    <contour>
      <point x="-149" y="981" type="curve" smooth="yes"/>
      <point x="-112" y="981" smooth="yes"/>
      <point x="-96" y="996" smooth="yes"/>
      <point x="-96" y="1032" type="curve" smooth="yes"/>
      <point x="-96" y="1069" smooth="yes"/>
      <point x="-111" y="1084" smooth="yes"/>
      <point x="-149" y="1084" type="curve" smooth="yes"/>
      <point x="-185" y="1084" smooth="yes"/>
      <point x="-200" y="1069" smooth="yes"/>
      <point x="-200" y="1032" type="curve" smooth="yes"/>
      <point x="-200" y="996" smooth="yes"/>
      <point x="-185" y="981" smooth="yes"/>
    </contour>
    <contour>
      <point x="21" y="991" type="line"/>
      <point x="21" y="910" smooth="yes"/>
      <point x="-7" y="832" smooth="yes"/>
      <point x="-150" y="832" type="curve" smooth="yes"/>
      <point x="-293" y="832"/>
      <point x="-320" y="910"/>
      <point x="-320" y="991" type="curve"/>
      <point x="-261" y="991" type="line"/>
      <point x="-261" y="939" smooth="yes"/>
      <point x="-246" y="892" smooth="yes"/>
      <point x="-150" y="892" type="curve" smooth="yes"/>
      <point x="-55" y="892"/>
      <point x="-40" y="939"/>
      <point x="-40" y="991" type="curve"/>
    </contour>
  </outline>
</glyph>
<glyph name="adeva" format="1">
  <advance width="836"/>
  <unicode hex="0905"/>
  <outline>
    <contour>
      <point x="261" y="46" type="curve"/>
      <point x="403" y="46" smooth="yes"/>
      <point x="477" y="111" smooth="yes"/>
      <point x="477" y="227" type="curve" smooth="yes"/>
      <point x="477" y="351" smooth="yes"/>
      <point x="386" y="409" smooth="yes"/>
      <point x="281" y="409" type="curve" smooth="yes"/>
      <point x="193" y="409" type="line"/>
      <point x="193" y="365" type="line"/>
      <point x="269" y="365" type="line" smooth="yes"/>
      <point x="371" y="365" smooth="yes"/>
      <point x="407" y="304" smooth="yes"/>
      <point x="407" y="226" type="curve" smooth="yes"/>
      <point x="407" y="150" smooth="yes"/>
      <point x="362" y="105" smooth="yes"/>
      <point x="261" y="104" type="curve" smooth="yes"/>
      <point x="160" y="105"/>
      <point x="106" y="149"/>
      <point x="97" y="256" type="curve"/>
      <point x="35" y="231" type="line"/>
      <point x="52" y="104" smooth="yes"/>
      <point x="125" y="46" smooth="yes"/>
    </contour>
    <contour>
      <point x="193" y="375" type="line"/>
      <point x="270" y="375" type="line" smooth="yes"/>
      <point x="375" y="375" smooth="yes"/>
      <point x="468" y="443" smooth="yes"/>
      <point x="468" y="550" type="curve" smooth="yes"/>
      <point x="468" y="668" smooth="yes"/>
      <point x="413" y="744" smooth="yes"/>
      <point x="251" y="744" type="curve" smooth="yes"/>
      <point x="104" y="744"/>
      <point x="49" y="668"/>
      <point x="49" y="550" type="curve"/>
      <point x="111" y="550" type="line"/>
      <point x="111" y="631" smooth="yes"/>
      <point x="147" y="685" smooth="yes"/>
      <point x="251" y="685" type="curve" smooth="yes"/>
      <point x="366" y="685" smooth="yes"/>
      <point x="398" y="632" smooth="yes"/>
      <point x="398" y="551" type="curve" smooth="yes"/>
      <point x="398" y="477" smooth="yes"/>
      <point x="352" y="419" smooth="yes"/>
      <point x="270" y="419" type="curve" smooth="yes"/>
      <point x="193" y="419" type="line"/>
    </contour>
    <contour>
      <point x="721" y="0" type="line"/>
      <point x="721" y="680" type="line"/>
      <point x="846" y="680" type="line"/>
      <point x="846" y="730" type="line"/>
      <point x="526" y="730" type="line"/>
      <point x="526" y="680" type="line"/>
      <point x="651" y="680" type="line"/>
      <point x="651" y="0" type="line"/>
    </contour>
    <contour>
      <point x="293" y="365" type="line"/>
      <point x="425" y="365"/>
      <point x="525" y="247"/>
      <point x="651" y="360" type="curve"/>
      <point x="651" y="399" type="line"/>
      <point x="525" y="296"/>
      <point x="425" y="409"/>
      <point x="293" y="409" type="curve"/>
    </contour>
  </outline>
</glyph>
<glyph name="ghadeva" format="1">
  <advance width="679"/>
  <unicode hex="0918"/>
  <outline>
    <contour>
      <point x="292" y="718" type="line"/>
      <point x="146" y="718" smooth="yes"/>
      <point x="97" y="658" smooth="yes"/>
      <point x="97" y="572" type="curve" smooth="yes"/>
      <point x="97" y="484" smooth="yes"/>
      <point x="182" y="420" smooth="yes"/>
      <point x="277" y="420" type="curve" smooth="yes"/>
      <point x="333" y="420" type="line"/>
      <point x="333" y="462" type="line"/>
      <point x="279" y="462" type="line" smooth="yes"/>
      <point x="205" y="462" smooth="yes"/>
      <point x="167" y="510" smooth="yes"/>
      <point x="167" y="569" type="curve" smooth="yes"/>
      <point x="167" y="635"/>
      <point x="195" y="680"/>
      <point x="292" y="680" type="curve"/>
    </contour>
    <contour>
      <point x="494" y="396" type="line"/>
      <point x="494" y="262" smooth="yes"/>
      <point x="412" y="159" smooth="yes"/>
      <point x="292" y="159" type="curve" smooth="yes"/>
      <point x="198" y="159" smooth="yes"/>
      <point x="159" y="206" smooth="yes"/>
      <point x="159" y="283" type="curve" smooth="yes"/>
      <point x="159" y="354" smooth="yes"/>
      <point x="201" y="412" smooth="yes"/>
      <point x="288" y="412" type="curve" smooth="yes"/>
      <point x="333" y="412" type="line"/>
      <point x="333" y="454" type="line"/>
      <point x="278" y="454" type="line" smooth="yes"/>
      <point x="176" y="454" smooth="yes"/>
      <point x="88" y="400" smooth="yes"/>
      <point x="88" y="284" type="curve" smooth="yes"/>
      <point x="88" y="167" smooth="yes"/>
      <point x="153" y="101" smooth="yes"/>
      <point x="285" y="101" type="curve" smooth="yes"/>
      <point x="431" y="101"/>
      <point x="514" y="216"/>
      <point x="532" y="377" type="curve"/>
    </contour>
    <contour>
      <point x="393" y="730" type="line"/>
      <point x="-10" y="730" type="line"/>
      <point x="-10" y="680" type="line"/>
      <point x="393" y="680" type="line"/>
    </contour>
    <contour>
      <point x="494" y="680" type="line"/>
      <point x="494" y="0" type="line"/>
      <point x="564" y="0" type="line"/>
      <point x="564" y="680" type="line"/>
      <point x="689" y="680" type="line"/>
      <point x="689" y="730" type="line"/>
      <point x="393" y="730" type="line"/>
      <point x="393" y="680" type="line"/>
    </contour>
  </outline>
</glyph>
<glyph name="ngadeva" format="1">
  <advance width="829"/>
  <unicode hex="0919"/>
  <outline>
    <contour>
      <point x="71" y="136" type="line"/>
      <point x="110" y="40" smooth="yes"/>
      <point x="201" y="-15" smooth="yes"/>
      <point x="367" y="-15" type="curve" smooth="yes"/>
      <point x="563" y="-15" smooth="yes"/>
      <point x="642" y="67" smooth="yes"/>
      <point x="642" y="183" type="curve" smooth="yes"/>
      <point x="642" y="294" smooth="yes"/>
      <point x="563" y="372" smooth="yes"/>
      <point x="370" y="372" type="curve" smooth="yes"/>
      <point x="318" y="372"/>
      <point x="269" y="361"/>
      <point x="226" y="346" type="curve"/>
      <point x="176" y="364" smooth="yes"/>
      <point x="156" y="396" smooth="yes"/>
      <point x="156" y="434" type="curve" smooth="yes"/>
      <point x="156" y="486"/>
      <point x="194" y="526"/>
      <point x="299" y="526" type="curve"/>
      <point x="299" y="586" type="line"/>
      <point x="154" y="586" smooth="yes"/>
      <point x="86" y="520" smooth="yes"/>
      <point x="86" y="433" type="curve" smooth="yes"/>
      <point x="86" y="347"/>
      <point x="134" y="313"/>
      <point x="207" y="286" type="curve"/>
      <point x="253" y="305" smooth="yes"/>
      <point x="308" y="317" smooth="yes"/>
      <point x="360" y="317" type="curve" smooth="yes"/>
      <point x="496" y="317" smooth="yes"/>
      <point x="573" y="270" smooth="yes"/>
      <point x="573" y="183" type="curve" smooth="yes"/>
      <point x="573" y="90" smooth="yes"/>
      <point x="497" y="43" smooth="yes"/>
      <point x="367" y="43" type="curve" smooth="yes"/>
      <point x="243" y="43"/>
      <point x="165" y="79"/>
      <point x="132" y="156" type="curve"/>
    </contour>
    <contour>
      <point x="565" y="586" type="line"/>
      <point x="565" y="680" type="line"/>
      <point x="841" y="680" type="line"/>
      <point x="841" y="730" type="line"/>
      <point x="-12" y="730" type="line"/>
      <point x="-12" y="680" type="line"/>
      <point x="495" y="680" type="line"/>
      <point x="495" y="586" type="line"/>
    </contour>
    <contour>
      <point x="299" y="526" type="line"/>
      <point x="565" y="526" type="line"/>
      <point x="565" y="586" type="line"/>
      <point x="299" y="586" type="line"/>
    </contour>
    <contour>
      <point x="735" y="375" type="curve" smooth="yes"/>
      <point x="775" y="375" smooth="yes"/>
      <point x="792" y="390" smooth="yes"/>
      <point x="792" y="426" type="curve" smooth="yes"/>
      <point x="792" y="463" smooth="yes"/>
      <point x="776" y="478" smooth="yes"/>
      <point x="735" y="478" type="curve" smooth="yes"/>
      <point x="697" y="478" smooth="yes"/>
      <point x="681" y="463" smooth="yes"/>
      <point x="681" y="426" type="curve" smooth="yes"/>
      <point x="681" y="390" smooth="yes"/>
      <point x="697" y="375" smooth="yes"/>
    </contour>
  </outline>
</glyph>
<glyph name="ttadeva" format="1">
  <advance width="610"/>
  <unicode hex="091F"/>
  <outline>
    <contour>
      <point x="481" y="225" type="line"/>
      <point x="474" y="141" smooth="yes"/>
      <point x="434" y="75" smooth="yes"/>
      <point x="299" y="75" type="curve" smooth="yes"/>
      <point x="173" y="75" smooth="yes"/>
      <point x="121" y="136" smooth="yes"/>
      <point x="121" y="280" type="curve" smooth="yes"/>
      <point x="121" y="386" smooth="yes"/>
      <point x="173" y="445" smooth="yes"/>
      <point x="310" y="445" type="curve" smooth="yes"/>
      <point x="495" y="445" type="line"/>
      <point x="495" y="730" type="line"/>
      <point x="-10" y="730" type="line"/>
      <point x="-10" y="680" type="line"/>
      <point x="425" y="680" type="line"/>
      <point x="425" y="505" type="line"/>
      <point x="309" y="505" type="line" smooth="yes"/>
      <point x="123" y="505" smooth="yes"/>
      <point x="51" y="419" smooth="yes"/>
      <point x="51" y="280" type="curve" smooth="yes"/>
      <point x="51" y="98" smooth="yes"/>
      <point x="129" y="16" smooth="yes"/>
      <point x="299" y="16" type="curve" smooth="yes"/>
      <point x="483" y="16"/>
      <point x="531" y="101"/>
      <point x="543" y="225" type="curve"/>
    </contour>
    <contour>
      <point x="495" y="680" type="line"/>
      <point x="620" y="680" type="line"/>
      <point x="620" y="730" type="line"/>
      <point x="495" y="730" type="line"/>
    </contour>
  </outline>
</glyph>
<glyph name="yadeva" format="1">
  <advance width="680"/>
  <unicode hex="092F"/>
  <outline>
    <contour>
      <point x="75" y="680" type="line"/>
      <point x="190" y="680" smooth="yes"/>
      <point x="222" y="625" smooth="yes"/>
      <point x="222" y="544" type="curve" smooth="yes"/>
      <point x="222" y="470" smooth="yes"/>
      <point x="196" y="414" smooth="yes"/>
      <point x="94" y="414" type="curve" smooth="yes"/>
      <point x="38" y="414" type="line"/>
      <point x="57" y="364" type="line"/>
      <point x="94" y="364" type="line" smooth="yes"/>
      <point x="227" y="364" smooth="yes"/>
      <point x="292" y="434" smooth="yes"/>
      <point x="292" y="545" type="curve" smooth="yes"/>
      <point x="292" y="649"/>
      <point x="237" y="718"/>
      <point x="75" y="718" type="curve"/>
    </contour>
    <contour>
      <point x="291" y="139" type="curve" smooth="yes"/>
      <point x="397" y="139"/>
      <point x="475" y="186"/>
      <point x="530" y="260" type="curve"/>
      <point x="530" y="325" type="line"/>
      <point x="486" y="259" smooth="yes"/>
      <point x="409" y="197" smooth="yes"/>
      <point x="291" y="197" type="curve" smooth="yes"/>
      <point x="164" y="197"/>
      <point x="108" y="279"/>
      <point x="108" y="414" type="curve"/>
      <point x="38" y="414" type="line"/>
      <point x="38" y="237" smooth="yes"/>
      <point x="125" y="139" smooth="yes"/>
    </contour>
    <contour>
      <point x="-10" y="680" type="line"/>
      <point x="690" y="680" type="line"/>
      <point x="690" y="730" type="line"/>
      <point x="-10" y="730" type="line"/>
    </contour>
    <contour>
      <point x="495" y="0" type="line"/>
      <point x="565" y="0" type="line"/>
      <point x="565" y="680" type="line"/>
      <point x="495" y="680" type="line"/>
    </contour>
  </outline>
</glyph>
<glyph name="usigndeva" format="1">
  <advance width="-13"/>
  <unicode hex="0941"/>
  <outline>
    <contour>
      <point x="-474" y="-129" type="line"/>
      <point x="-352" y="-246" smooth="yes"/>
      <point x="-238" y="-262" smooth="yes"/>
      <point x="-150" y="-262" type="curve" smooth="yes"/>
      <point x="-46" y="-262" smooth="yes"/>
      <point x="26" y="-215" smooth="yes"/>
      <point x="26" y="-107" type="curve" smooth="yes"/>
      <point x="26" y="9"/>
      <point x="-43" y="47"/>
      <point x="-150" y="47" type="curve"/>
      <point x="-150" y="-3" type="line"/>
      <point x="-81" y="-3" smooth="yes"/>
      <point x="-34" y="-20" smooth="yes"/>
      <point x="-34" y="-107" type="curve" smooth="yes"/>
      <point x="-34" y="-183" smooth="yes"/>
      <point x="-82" y="-211" smooth="yes"/>
      <point x="-150" y="-212" type="curve" smooth="yes"/>
      <point x="-205" y="-212"/>
      <point x="-319" y="-208"/>
      <point x="-439" y="-84" type="curve"/>
    </contour>
    <contour>
      <point x="-262" y="-66" type="line"/>
      <point x="-249" y="-14"/>
      <point x="-206" y="-3"/>
      <point x="-150" y="-3" type="curve"/>
      <point x="-150" y="47" type="line"/>
      <point x="-237" y="47"/>
      <point x="-299" y="22"/>
      <point x="-319" y="-49" type="curve"/>
    </contour>
  </outline>
</glyph>
<glyph name="uusigndeva" format="1">
  <advance width="0"/>
  <unicode hex="0942"/>
  <outline>
    <contour>
      <point x="174" y="-86" type="line"/>
      <point x="52" y="31" smooth="yes"/>
      <point x="-62" y="47" smooth="yes"/>
      <point x="-150" y="47" type="curve" smooth="yes"/>
      <point x="-254" y="47" smooth="yes"/>
      <point x="-326" y="0" smooth="yes"/>
      <point x="-326" y="-108" type="curve" smooth="yes"/>
      <point x="-326" y="-224"/>
      <point x="-257" y="-262"/>
      <point x="-150" y="-262" type="curve"/>
      <point x="-150" y="-212" type="line"/>
      <point x="-219" y="-212" smooth="yes"/>
      <point x="-266" y="-195" smooth="yes"/>
      <point x="-266" y="-108" type="curve" smooth="yes"/>
      <point x="-266" y="-32" smooth="yes"/>
      <point x="-218" y="-4" smooth="yes"/>
      <point x="-150" y="-3" type="curve" smooth="yes"/>
      <point x="-95" y="-3"/>
      <point x="19" y="-7"/>
      <point x="139" y="-131" type="curve"/>
    </contour>
    <contour>
      <point x="-38" y="-149" type="line"/>
      <point x="-51" y="-201"/>
      <point x="-94" y="-212"/>
      <point x="-150" y="-212" type="curve"/>
      <point x="-150" y="-262" type="line"/>
      <point x="-63" y="-262"/>
      <point x="-1" y="-237"/>
      <point x="19" y="-166" type="curve"/>
    </contour>
  </outline>
</glyph>
<glyph name="rvocalicsigndeva" format="1">
  <advance width="0"/>
  <unicode hex="0943"/>
  <outline>
    <contour>
      <point x="-37" y="-216" type="line"/>
      <point x="-83" y="-236" smooth="yes"/>
      <point x="-121" y="-239" smooth="yes"/>
      <point x="-148" y="-239" type="curve" smooth="yes"/>
      <point x="-216" y="-238" smooth="yes"/>
      <point x="-264" y="-210" smooth="yes"/>
      <point x="-264" y="-134" type="curve" smooth="yes"/>
      <point x="-264" y="-47"/>
      <point x="-217" y="-30"/>
      <point x="-148" y="-30" type="curve"/>
      <point x="-148" y="20" type="line"/>
      <point x="-255" y="20" smooth="yes"/>
      <point x="-324" y="-18" smooth="yes"/>
      <point x="-324" y="-134" type="curve" smooth="yes"/>
      <point x="-324" y="-242" smooth="yes"/>
      <point x="-252" y="-289" smooth="yes"/>
      <point x="-148" y="-289" type="curve" smooth="yes"/>
      <point x="-110" y="-289"/>
      <point x="-67" y="-285"/>
      <point x="-21" y="-265" type="curve"/>
    </contour>
  </outline>
</glyph>
<glyph name="viramadeva" format="1">
  <advance width="0"/>
  <unicode hex="094D"/>
  <outline>
    <contour>
      <point x="-166" y="-106" type="line"/>
      <point x="72" y="-308" type="line"/>
      <point x="113" y="-255" type="line"/>
      <point x="-150" y="-50" type="line"/>
    </contour>
    <contour>
      <point x="-150" y="-50" type="line"/>
      <point x="-280" y="-142" type="line"/>
      <point x="-238" y="-195" type="line"/>
      <point x="-129" y="-106" type="line"/>
    </contour>
  </outline>
</glyph>
<glyph name="abbreviationsigndeva" format="1">
  <advance width="532"/>
  <unicode hex="0970"/>
  <outline>
    <contour>
      <point x="268" y="372" type="curve" smooth="yes"/>
      <point x="298" y="372" smooth="yes"/>
      <point x="323" y="383" smooth="yes"/>
      <point x="344" y="404" type="curve" smooth="yes"/>
      <point x="365" y="427" smooth="yes"/>
      <point x="376" y="453" smooth="yes"/>
      <point x="376" y="484" type="curve" smooth="yes"/>
      <point x="376" y="547" smooth="yes"/>
      <point x="327" y="596" smooth="yes"/>
      <point x="268" y="596" type="curve" smooth="yes"/>
      <point x="209" y="596" smooth="yes"/>
      <point x="160" y="547" smooth="yes"/>
      <point x="160" y="484" type="curve" smooth="yes"/>
      <point x="160" y="422" smooth="yes"/>
      <point x="209" y="372" smooth="yes"/>
    </contour>
    <contour>
      <point x="98" y="484" type="curve" smooth="yes"/>
      <point x="98" y="530" smooth="yes"/>
      <point x="114" y="569" smooth="yes"/>
      <point x="146" y="602" type="curve" smooth="yes"/>
      <point x="180" y="634" smooth="yes"/>
      <point x="220" y="650" smooth="yes"/>
      <point x="267" y="650" type="curve" smooth="yes"/>
      <point x="313" y="650" smooth="yes"/>
      <point x="354" y="634" smooth="yes"/>
      <point x="386" y="602" type="curve" smooth="yes"/>
      <point x="419" y="569" smooth="yes"/>
      <point x="436" y="530" smooth="yes"/>
      <point x="436" y="484" type="curve" smooth="yes"/>
      <point x="436" y="438" smooth="yes"/>
      <point x="419" y="398" smooth="yes"/>
      <point x="386" y="366" type="curve" smooth="yes"/>
      <point x="354" y="334" smooth="yes"/>
      <point x="313" y="317" smooth="yes"/>
      <point x="267" y="317" type="curve" smooth="yes"/>
      <point x="220" y="317" smooth="yes"/>
      <point x="180" y="334" smooth="yes"/>
      <point x="146" y="366" type="curve" smooth="yes"/>
      <point x="114" y="398" smooth="yes"/>
      <point x="98" y="438" smooth="yes"/>
    </contour>
  </outline>
</glyph>
<glyph name="endash" format="1">
  <advance width="580"/>
  <unicode hex="2013"/>
  <outline>
    <contour>
      <point x="70" y="288" type="line" name="hr00"/>
      <point x="510" y="288" type="line"/>
      <point x="510" y="348" type="line"/>
      <point x="70" y="348" type="line"/>
    </contour>
  </outline>
</glyph>
<glyph name="quoteright" format="1">
  <advance width="283"/>
  <unicode hex="2019"/>
  <outline>
    <contour>
      <point x="107" y="725" type="curve" smooth="yes" name="hr00"/>
      <point x="107" y="753" smooth="yes"/>
      <point x="110" y="783" smooth="yes"/>
      <point x="154" y="783" type="curve" smooth="yes"/>
      <point x="200" y="783" smooth="yes"/>
      <point x="203" y="753" smooth="yes"/>
      <point x="203" y="725" type="curve" smooth="yes"/>
      <point x="203" y="624"/>
      <point x="103" y="555"/>
      <point x="103" y="555" type="curve"/>
      <point x="80" y="582" type="line"/>
      <point x="101" y="601" smooth="yes"/>
      <point x="118" y="618" smooth="yes"/>
      <point x="118" y="661" type="curve" smooth="yes"/>
      <point x="118" y="680" smooth="yes"/>
      <point x="107" y="700" smooth="yes"/>
    </contour>
  </outline>
</glyph>
<glyph name="quotedblright" format="1">
  <advance width="440"/>
  <unicode hex="201D"/>
  <outline>
    <contour>
      <point x="264" y="725" type="curve" smooth="yes" name="hr00"/>
      <point x="264" y="753" smooth="yes"/>
      <point x="267" y="783" smooth="yes"/>
      <point x="311" y="783" type="curve" smooth="yes"/>
      <point x="357" y="783" smooth="yes"/>
      <point x="360" y="753" smooth="yes"/>
      <point x="360" y="725" type="curve" smooth="yes"/>
      <point x="360" y="624"/>
      <point x="260" y="555"/>
      <point x="260" y="555" type="curve"/>
      <point x="236" y="582" type="line"/>
      <point x="258" y="601"/>
      <point x="275" y="618"/>
      <point x="275" y="661" type="curve"/>
      <point x="275" y="680" smooth="yes"/>
      <point x="264" y="700" smooth="yes"/>
    </contour>
    <contour>
      <point x="107" y="725" type="curve" smooth="yes"/>
      <point x="107" y="753" smooth="yes"/>
      <point x="110" y="783" smooth="yes"/>
      <point x="154" y="783" type="curve" smooth="yes"/>
      <point x="200" y="783" smooth="yes"/>
      <point x="203" y="753" smooth="yes"/>
      <point x="203" y="725" type="curve" smooth="yes"/>
      <point x="203" y="624"/>
      <point x="103" y="555"/>
      <point x="103" y="555" type="curve"/>
      <point x="80" y="582" type="line"/>
      <point x="101" y="601" smooth="yes"/>
      <point x="118" y="618" smooth="yes"/>
      <point x="118" y="661" type="curve" smooth="yes"/>
      <point x="118" y="680" smooth="yes"/>
      <point x="107" y="700" smooth="yes"/>
    </contour>
  </outline>
</glyph>
<glyph name="guilsinglright" format="1">
  <advance width="305"/>
  <unicode hex="203A"/>
  <outline>
    <contour>
      <point x="184" y="315" type="line" name="hr00"/>
      <point x="60" y="472" type="line"/>
      <point x="107" y="518" type="line"/>
      <point x="275" y="331" type="line"/>
      <point x="275" y="299" type="line"/>
      <point x="107" y="112" type="line"/>
      <point x="60" y="158" type="line"/>
    </contour>
  </outline>
</glyph>
<glyph name="seveninferior" format="1">
  <advance width="414"/>
  <unicode hex="2087"/>
  <outline>
    <contour>
      <point x="190" y="-107" type="line" name="hr00"/>
      <point x="347" y="258" type="line"/>
      <point x="347" y="298" type="line"/>
      <point x="80" y="298" type="line"/>
      <point x="80" y="254" type="line"/>
      <point x="287" y="254" type="line"/>
      <point x="130" y="-107" type="line"/>
    </contour>
    <contour>
      <point x="80" y="191" type="line"/>
      <point x="120" y="191" type="line"/>
      <point x="120" y="254" type="line"/>
      <point x="80" y="254" type="line"/>
    </contour>
  </outline>
</glyph>
<glyph name="approxequal" format="1">
  <advance width="580"/>
  <unicode hex="2248"/>
  <outline>
    <contour>
      <point x="94" y="388" type="line" name="hr00"/>
      <point x="121" y="372" smooth="yes"/>
      <point x="148" y="366" smooth="yes"/>
      <point x="176" y="366" type="curve" smooth="yes"/>
      <point x="251" y="366" smooth="yes"/>
      <point x="328" y="409" smooth="yes"/>
      <point x="404" y="409" type="curve" smooth="yes"/>
      <point x="432" y="409"/>
      <point x="459" y="403"/>
      <point x="486" y="388" type="curve"/>
      <point x="486" y="448" type="line"/>
      <point x="459" y="462" smooth="yes"/>
      <point x="431" y="467" smooth="yes"/>
      <point x="404" y="467" type="curve" smooth="yes"/>
      <point x="328" y="467" smooth="yes"/>
      <point x="251" y="424" smooth="yes"/>
      <point x="176" y="424" type="curve" smooth="yes"/>
      <point x="148" y="424"/>
      <point x="121" y="429"/>
      <point x="94" y="448" type="curve"/>
    </contour>
    <contour>
      <point x="94" y="188" type="line"/>
      <point x="121" y="172" smooth="yes"/>
      <point x="148" y="166" smooth="yes"/>
      <point x="176" y="166" type="curve" smooth="yes"/>
      <point x="251" y="166" smooth="yes"/>
      <point x="328" y="209" smooth="yes"/>
      <point x="404" y="209" type="curve" smooth="yes"/>
      <point x="432" y="209"/>
      <point x="459" y="203"/>
      <point x="486" y="188" type="curve"/>
      <point x="486" y="248" type="line"/>
      <point x="459" y="262" smooth="yes"/>
      <point x="431" y="267" smooth="yes"/>
      <point x="404" y="267" type="curve" smooth="yes"/>
      <point x="328" y="267" smooth="yes"/>
      <point x="251" y="224" smooth="yes"/>
      <point x="176" y="224" type="curve" smooth="yes"/>
      <point x="148" y="224"/>
      <point x="121" y="229"/>
      <point x="94" y="248" type="curve"/>
    </contour>
  </outline>
</glyph>
<glyph name="vicombiningletterdeva" format="1">
  <advance width="0"/>
  <unicode hex="A8F0"/>
  <outline>
    <contour>
      <point x="20" y="1129" type="line"/>
      <point x="4" y="1181" smooth="yes"/>
      <point x="-62" y="1267" smooth="yes"/>
      <point x="-197" y="1267" type="curve" smooth="yes"/>
      <point x="-310" y="1267" smooth="yes"/>
      <point x="-344" y="1224" smooth="yes"/>
      <point x="-344" y="1177" type="curve" smooth="yes"/>
      <point x="-344" y="1160"/>
      <point x="-338" y="1142"/>
      <point x="-328" y="1129" type="curve"/>
      <point x="-280" y="1129" type="line"/>
      <point x="-290" y="1139" smooth="yes"/>
      <point x="-295" y="1158" smooth="yes"/>
      <point x="-295" y="1176" type="curve" smooth="yes"/>
      <point x="-295" y="1204" smooth="yes"/>
      <point x="-266" y="1226" smooth="yes"/>
      <point x="-195" y="1226" type="curve" smooth="yes"/>
      <point x="-94" y="1226"/>
      <point x="-43" y="1163"/>
      <point x="-28" y="1129" type="curve"/>
    </contour>
    <contour>
      <point x="-325" y="1096" type="line"/>
      <point x="-325" y="800" type="line"/>
      <point x="-276" y="800" type="line"/>
      <point x="-276" y="1096" type="line"/>
      <point x="-224" y="1096" type="line"/>
      <point x="-224" y="1129" type="line"/>
      <point x="-377" y="1129" type="line"/>
      <point x="-377" y="1096" type="line"/>
    </contour>
    <contour>
      <point x="-52" y="1025" type="line"/>
      <point x="-68" y="1031" smooth="yes"/>
      <point x="-85" y="1034" smooth="yes"/>
      <point x="-104" y="1034" type="curve" smooth="yes"/>
      <point x="-174" y="1034" smooth="yes"/>
      <point x="-197" y="994" smooth="yes"/>
      <point x="-197" y="943" type="curve" smooth="yes"/>
      <point x="-197" y="891" smooth="yes"/>
      <point x="-173" y="851" smooth="yes"/>
      <point x="-102" y="851" type="curve" smooth="yes"/>
      <point x="-64" y="851"/>
      <point x="-33" y="859"/>
      <point x="-10" y="876" type="curve"/>
      <point x="-10" y="917" type="line"/>
      <point x="-26" y="900" smooth="yes"/>
      <point x="-57" y="888" smooth="yes"/>
      <point x="-94" y="888" type="curve" smooth="yes"/>
      <point x="-134" y="888" smooth="yes"/>
      <point x="-148" y="911" smooth="yes"/>
      <point x="-148" y="943" type="curve" smooth="yes"/>
      <point x="-148" y="973" smooth="yes"/>
      <point x="-135" y="996" smooth="yes"/>
      <point x="-94" y="996" type="curve" smooth="yes"/>
      <point x="-82" y="996"/>
      <point x="-71" y="994"/>
      <point x="-60" y="990" type="curve"/>
    </contour>
    <contour>
      <point x="-240" y="1096" type="line"/>
      <point x="76" y="1096" type="line"/>
      <point x="76" y="1129" type="line"/>
      <point x="-240" y="1129" type="line"/>
    </contour>
    <contour>
      <point x="-25" y="800" type="line"/>
      <point x="24" y="800" type="line"/>
      <point x="24" y="1096" type="line"/>
      <point x="-25" y="1096" type="line"/>
    </contour>
  </outline>
</glyph>
<glyph name="candrabindudigitthreedeva" format="1">
  <advance width="541"/>
  <unicode hex="A8F6"/>
  <outline>
    <contour>
      <point x="270" y="376" type="curve" smooth="yes"/>
      <point x="224" y="376"/>
      <point x="186" y="362"/>
      <point x="154" y="338" type="curve"/>
      <point x="175" y="299" type="line"/>
      <point x="200" y="319" smooth="yes"/>
      <point x="233" y="333" smooth="yes"/>
      <point x="266" y="333" type="curve" smooth="yes"/>
      <point x="309" y="333" smooth="yes"/>
      <point x="337" y="313" smooth="yes"/>
      <point x="337" y="273" type="curve" smooth="yes"/>
      <point x="337" y="237" smooth="yes"/>
      <point x="314" y="208" smooth="yes"/>
      <point x="271" y="208" type="curve" smooth="yes"/>
      <point x="231" y="208" type="line"/>
      <point x="231" y="177" type="line"/>
      <point x="273" y="177" type="line" smooth="yes"/>
      <point x="334" y="177" smooth="yes"/>
      <point x="391" y="211" smooth="yes"/>
      <point x="391" y="272" type="curve" smooth="yes"/>
      <point x="391" y="337" smooth="yes"/>
      <point x="342" y="376" smooth="yes"/>
    </contour>
    <contour>
      <point x="402" y="97" type="curve" smooth="yes"/>
      <point x="402" y="163" smooth="yes"/>
      <point x="348" y="199" smooth="yes"/>
      <point x="284" y="199" type="curve" smooth="yes"/>
      <point x="231" y="199" type="line"/>
      <point x="231" y="168" type="line"/>
      <point x="274" y="168" type="line" smooth="yes"/>
      <point x="319" y="168" smooth="yes"/>
      <point x="348" y="137" smooth="yes"/>
      <point x="348" y="100" type="curve" smooth="yes"/>
      <point x="348" y="58" smooth="yes"/>
      <point x="316" y="36" smooth="yes"/>
      <point x="272" y="36" type="curve" smooth="yes"/>
      <point x="219" y="36"/>
      <point x="184" y="61"/>
      <point x="181" y="89" type="curve"/>
      <point x="169" y="31" type="line"/>
      <point x="190" y="12" smooth="yes"/>
      <point x="215" y="-7" smooth="yes"/>
      <point x="274" y="-7" type="curve" smooth="yes"/>
      <point x="343" y="-7" smooth="yes"/>
      <point x="402" y="33" smooth="yes"/>
    </contour>
    <contour>
      <point x="185" y="11" type="curve"/>
      <point x="221" y="-38"/>
      <point x="282" y="-85"/>
      <point x="382" y="-120" type="curve"/>
      <point x="393" y="-79" type="line"/>
      <point x="271" y="-34"/>
      <point x="201" y="21"/>
      <point x="196" y="116" type="curve"/>
      <point x="117" y="137"/>
      <point x="114" y="50"/>
    </contour>
    <component  base="spacingcandrabindudeva"/>
  </outline>
</glyph>
<glyph name="isign_ra_virama_anusvara.alt1" format="1">
  <advance width="300"/>
  <outline>
    <contour>
      <point x="859" y="823" type="curve" smooth="yes"/>
      <point x="896" y="823" smooth="yes"/>
      <point x="912" y="838" smooth="yes"/>
      <point x="912" y="874" type="curve" smooth="yes"/>
      <point x="912" y="911" smooth="yes"/>
      <point x="897" y="926" smooth="yes"/>
      <point x="859" y="926" type="curve" smooth="yes"/>
      <point x="823" y="926" smooth="yes"/>
      <point x="808" y="911" smooth="yes"/>
      <point x="808" y="874" type="curve" smooth="yes"/>
      <point x="808" y="838" smooth="yes"/>
      <point x="823" y="823" smooth="yes"/>
    </contour>
    <component  base="isign_ra_virama.alt1"/>
  </outline>
</glyph>
<glyph name="d.alt" format="1">
  <advance width="636"/>
  <outline>
    <contour>
      <point x="275" y="-14" type="curve" smooth="yes"/>
      <point x="375" y="-14"/>
      <point x="458" y="52"/>
      <point x="492" y="100" type="curve"/>
      <point x="476" y="142" type="line"/>
      <point x="419" y="81" smooth="yes"/>
      <point x="363" y="45" smooth="yes"/>
      <point x="287" y="45" type="curve" smooth="yes"/>
      <point x="152" y="45" smooth="yes"/>
      <point x="130" y="135" smooth="yes"/>
      <point x="130" y="258" type="curve" smooth="yes"/>
      <point x="130" y="382" smooth="yes"/>
      <point x="155" y="477" smooth="yes"/>
      <point x="290" y="477" type="curve" smooth="yes"/>
      <point x="337" y="477"/>
      <point x="405" y="467"/>
      <point x="466" y="433" type="curve"/>
      <point x="488" y="479" type="line"/>
      <point x="432" y="511" smooth="yes"/>
      <point x="355" y="536" smooth="yes"/>
      <point x="280" y="536" type="curve" smooth="yes"/>
      <point x="82" y="536" smooth="yes"/>
      <point x="60" y="403" smooth="yes"/>
      <point x="60" y="261" type="curve" smooth="yes"/>
      <point x="60" y="119" smooth="yes"/>
      <point x="82" y="-14" smooth="yes"/>
    </contour>
    <contour>
      <point x="469" y="0" type="line" name="hr01"/>
      <point x="516" y="0" type="line"/>
      <point x="516" y="750" type="line"/>
      <point x="446" y="750" type="line"/>
      <point x="446" y="109" type="line"/>
      <point x="451" y="84" type="line"/>
    </contour>
    <contour>
      <point x="516" y="0" type="line"/>
      <point x="576" y="0" type="line"/>
      <point x="576" y="50" type="line"/>
      <point x="516" y="50" type="line"/>
    </contour>
  </outline>
</glyph>
<glyph name="dadeva_viramadeva_gadeva" format="1">
  <advance width="610"/>
  <outline>
    <contour>
      <point x="261" y="159" type="line"/>
      <point x="203" y="159" type="line"/>
      <point x="203" y="58" type="line"/>
      <point x="161" y="58" type="line" smooth="yes"/>
      <point x="145" y="58" smooth="yes"/>
      <point x="140" y="51" smooth="yes"/>
      <point x="140" y="30" type="curve" smooth="yes"/>
      <point x="140" y="-23" smooth="yes"/>
      <point x="212" y="-61" smooth="yes"/>
      <point x="240" y="-61" type="curve" smooth="yes"/>
      <point x="252" y="-61" smooth="yes"/>
      <point x="261" y="-57" smooth="yes"/>
      <point x="261" y="-42" type="curve" smooth="yes"/>
    </contour>
    <component  base="dadeva"/>
  </outline>
</glyph>
<glyph name="dadeva_viramadeva_yadeva" format="1">
  <advance width="799"/>
  <outline>
    <contour>
      <point x="364" y="21" type="curve" smooth="yes"/>
      <point x="478" y="21"/>
      <point x="572" y="64"/>
      <point x="640" y="148" type="curve"/>
      <point x="640" y="227" type="line"/>
      <point x="576" y="132" smooth="yes"/>
      <point x="477" y="79" smooth="yes"/>
      <point x="364" y="79" type="curve" smooth="yes"/>
      <point x="268" y="79" smooth="yes"/>
      <point x="218" y="123" smooth="yes"/>
      <point x="218" y="206" type="curve" smooth="yes"/>
      <point x="218" y="284" smooth="yes"/>
      <point x="267" y="326" smooth="yes"/>
      <point x="377" y="326" type="curve" smooth="yes"/>
      <point x="437" y="326" type="line"/>
      <point x="437" y="376" type="line"/>
      <point x="377" y="376" type="line" smooth="yes"/>
      <point x="225" y="376" smooth="yes"/>
      <point x="148" y="319" smooth="yes"/>
      <point x="148" y="207" type="curve" smooth="yes"/>
      <point x="148" y="86" smooth="yes"/>
      <point x="224" y="21" smooth="yes"/>
    </contour>
    <contour>
      <point x="204" y="272" type="curve"/>
      <point x="240" y="323" type="line"/>
      <point x="173" y="343" smooth="yes"/>
      <point x="143" y="379" smooth="yes"/>
      <point x="143" y="425" type="curve" smooth="yes"/>
      <point x="143" y="471"/>
      <point x="174" y="506"/>
      <point x="261" y="506" type="curve"/>
      <point x="261" y="566" type="line"/>
      <point x="132" y="566" smooth="yes"/>
      <point x="73" y="504" smooth="yes"/>
      <point x="73" y="422" type="curve" smooth="yes"/>
      <point x="73" y="339"/>
      <point x="123" y="299"/>
    </contour>
    <contour>
      <point x="375" y="566" type="line"/>
      <point x="445" y="566" type="line"/>
      <point x="445" y="680" type="line"/>
      <point x="615" y="680" type="line"/>
      <point x="615" y="730" type="line"/>
      <point x="-10" y="730" type="line"/>
      <point x="-10" y="680" type="line"/>
      <point x="375" y="680" type="line"/>
    </contour>
    <contour>
      <point x="614" y="0" type="line"/>
      <point x="684" y="0" type="line"/>
      <point x="684" y="680" type="line"/>
      <point x="809" y="680" type="line"/>
      <point x="809" y="730" type="line"/>
      <point x="520" y="730" type="line"/>
      <point x="520" y="680" type="line"/>
      <point x="614" y="680" type="line"/>
    </contour>
    <contour>
      <point x="261" y="506" type="line"/>
      <point x="445" y="506" type="line"/>
      <point x="445" y="566" type="line"/>
      <point x="261" y="566" type="line"/>
    </contour>
  </outline>
</glyph>
<glyph name="esigndeva" format="1">
  <advance width="0"/>
  <outline>
    <contour>
      <point x="-113" y="730" type="line"/>
      <point x="-404" y="1066" type="line"/>
      <point x="-455" y="1022" type="line"/>
      <point x="-185" y="730" type="line"/>
    </contour>
  </outline>
</glyph>
<glyph name="hadeva_viramadeva_nadeva" format="1">
  <advance width="621"/>
  <outline>
    <contour>
      <point x="636" y="206" type="line" smooth="yes"/>
      <point x="636" y="326" smooth="yes"/>
      <point x="532" y="397" smooth="yes"/>
      <point x="374" y="397" type="curve" smooth="yes"/>
      <point x="192" y="397" smooth="yes"/>
      <point x="73" y="306" smooth="yes"/>
      <point x="73" y="136" type="curve" smooth="yes"/>
      <point x="73" y="-23"/>
      <point x="163" y="-108"/>
      <point x="334" y="-176" type="curve"/>
      <point x="360" y="-118" type="line"/>
      <point x="215" y="-60" smooth="yes"/>
      <point x="143" y="7" smooth="yes"/>
      <point x="143" y="146" type="curve" smooth="yes"/>
      <point x="143" y="266" smooth="yes"/>
      <point x="228" y="343" smooth="yes"/>
      <point x="374" y="343" type="curve" smooth="yes"/>
      <point x="489" y="343" smooth="yes"/>
      <point x="566" y="288" smooth="yes"/>
      <point x="566" y="212" type="curve" smooth="yes"/>
      <point x="566" y="0" type="line"/>
      <point x="636" y="0" type="line"/>
    </contour>
    <contour>
      <point x="218" y="331" type="line"/>
      <point x="166" y="350" smooth="yes"/>
      <point x="143" y="383" smooth="yes"/>
      <point x="143" y="425" type="curve" smooth="yes"/>
      <point x="143" y="471"/>
      <point x="174" y="506"/>
      <point x="261" y="506" type="curve"/>
      <point x="261" y="566" type="line"/>
      <point x="132" y="566" smooth="yes"/>
      <point x="73" y="504" smooth="yes"/>
      <point x="73" y="422" type="curve" smooth="yes"/>
      <point x="73" y="345"/>
      <point x="112" y="308"/>
      <point x="175" y="283" type="curve"/>
    </contour>
    <contour>
      <point x="495" y="566" type="line"/>
      <point x="495" y="680" type="line"/>
      <point x="686" y="680" type="line"/>
      <point x="686" y="730" type="line"/>
      <point x="-10" y="730" type="line"/>
      <point x="-10" y="680" type="line"/>
      <point x="425" y="680" type="line"/>
      <point x="425" y="566" type="line"/>
    </contour>
    <contour>
      <point x="261" y="506" type="line"/>
      <point x="495" y="506" type="line"/>
      <point x="495" y="566" type="line"/>
      <point x="261" y="566" type="line"/>
    </contour>
    <contour>
      <point x="601" y="194" type="line"/>
      <point x="284" y="194" type="line" smooth="yes"/>
      <point x="253" y="194" smooth="yes"/>
      <point x="241" y="185" smooth="yes"/>
      <point x="241" y="156" type="curve" smooth="yes"/>
      <point x="241" y="91" smooth="yes"/>
      <point x="329" y="50" smooth="yes"/>
      <point x="359" y="50" type="curve" smooth="yes"/>
      <point x="371" y="50" smooth="yes"/>
      <point x="382" y="53" smooth="yes"/>
      <point x="382" y="71" type="curve" smooth="yes"/>
      <point x="382" y="144" type="line"/>
      <point x="601" y="144" type="line"/>
    </contour>
  </outline>
</glyph>
<glyph name="hadeva_viramadeva_yadeva" format="1">
  <advance width="895"/>
  <outline>
    <contour>
      <point x="218" y="341" type="line"/>
      <point x="166" y="360" smooth="yes"/>
      <point x="143" y="393" smooth="yes"/>
      <point x="143" y="435" type="curve" smooth="yes"/>
      <point x="143" y="481"/>
      <point x="174" y="516"/>
      <point x="261" y="516" type="curve"/>
      <point x="261" y="576" type="line"/>
      <point x="132" y="576" smooth="yes"/>
      <point x="73" y="514" smooth="yes"/>
      <point x="73" y="432" type="curve" smooth="yes"/>
      <point x="73" y="355"/>
      <point x="112" y="318"/>
      <point x="175" y="293" type="curve"/>
    </contour>
    <contour>
      <point x="495" y="576" type="line"/>
      <point x="495" y="680" type="line"/>
      <point x="905" y="680" type="line"/>
      <point x="905" y="730" type="line"/>
      <point x="-10" y="730" type="line"/>
      <point x="-10" y="680" type="line"/>
      <point x="425" y="680" type="line"/>
      <point x="425" y="576" type="line"/>
    </contour>
    <contour>
      <point x="261" y="516" type="line"/>
      <point x="495" y="516" type="line"/>
      <point x="495" y="576" type="line"/>
      <point x="261" y="576" type="line"/>
    </contour>
    <contour>
      <point x="370" y="409" type="line"/>
      <point x="184" y="409" smooth="yes"/>
      <point x="73" y="306" smooth="yes"/>
      <point x="73" y="136" type="curve" smooth="yes"/>
      <point x="73" y="-23"/>
      <point x="163" y="-118"/>
      <point x="334" y="-176" type="curve"/>
      <point x="360" y="-118" type="line"/>
      <point x="215" y="-70" smooth="yes"/>
      <point x="143" y="9" smooth="yes"/>
      <point x="143" y="132" type="curve" smooth="yes"/>
      <point x="143" y="274"/>
      <point x="220" y="355"/>
      <point x="370" y="355" type="curve"/>
    </contour>
    <contour>
      <point x="720" y="0" type="line"/>
      <point x="790" y="0" type="line"/>
      <point x="790" y="680" type="line"/>
      <point x="720" y="680" type="line"/>
    </contour>
    <contour>
      <point x="529" y="0" type="curve" smooth="yes"/>
      <point x="627" y="0"/>
      <point x="704" y="41"/>
      <point x="755" y="113" type="curve"/>
      <point x="755" y="184" type="line"/>
      <point x="714" y="115" smooth="yes"/>
      <point x="641" y="54" smooth="yes"/>
      <point x="532" y="54" type="curve" smooth="yes"/>
      <point x="403" y="54"/>
      <point x="355" y="125"/>
      <point x="355" y="239" type="curve"/>
      <point x="302" y="239" type="line"/>
      <point x="302" y="88" smooth="yes"/>
      <point x="372" y="0" smooth="yes"/>
    </contour>
    <contour>
      <point x="528" y="300" type="curve"/>
      <point x="528" y="360"/>
      <point x="477" y="409"/>
      <point x="370" y="409" type="curve"/>
      <point x="370" y="355" type="line"/>
      <point x="425" y="355" smooth="yes"/>
      <point x="458" y="330" smooth="yes"/>
      <point x="458" y="300" type="curve" smooth="yes"/>
      <point x="458" y="266"/>
      <point x="419" y="239"/>
      <point x="355" y="239" type="curve"/>
      <point x="355" y="188" type="line"/>
      <point x="472" y="188" smooth="yes"/>
      <point x="528" y="238" smooth="yes"/>
    </contour>
  </outline>
</glyph>
<glyph name="isigndeva.alt4" format="1">
  <advance width="300"/>
  <outline>
    <contour>
      <point x="861" y="730" type="line"/>
      <point x="821" y="847" smooth="yes"/>
      <point x="655" y="1037" smooth="yes"/>
      <point x="337" y="1037" type="curve" smooth="yes"/>
      <point x="126" y="1037" smooth="yes"/>
      <point x="64" y="946" smooth="yes"/>
      <point x="64" y="848" type="curve" smooth="yes"/>
      <point x="64" y="806"/>
      <point x="80" y="764"/>
      <point x="108" y="730" type="curve"/>
      <point x="177" y="730" type="line"/>
      <point x="154" y="756" smooth="yes"/>
      <point x="134" y="805" smooth="yes"/>
      <point x="134" y="847" type="curve" smooth="yes"/>
      <point x="134" y="916" smooth="yes"/>
      <point x="187" y="977" smooth="yes"/>
      <point x="336" y="977" type="curve" smooth="yes"/>
      <point x="616" y="977"/>
      <point x="751" y="818"/>
      <point x="792" y="730" type="curve"/>
    </contour>
    <contour>
      <point x="115" y="680" type="line"/>
      <point x="115" y="0" type="line"/>
      <point x="185" y="0" type="line"/>
      <point x="185" y="680" type="line"/>
      <point x="310" y="680" type="line"/>
      <point x="310" y="730" type="line"/>
      <point x="-10" y="730" type="line"/>
      <point x="-10" y="680" type="line"/>
    </contour>
  </outline>
</glyph>
<glyph name="jadeva_viramadeva" format="1">
  <advance width="472"/>
  <outline>
    <contour>
      <point x="597" y="680" type="line"/>
      <point x="597" y="730" type="line"/>
      <point x="-50" y="730" type="line"/>
      <point x="-50" y="680" type="line"/>
    </contour>
    <contour>
      <point x="270" y="463" type="line"/>
      <point x="622" y="463" type="line"/>
      <point x="622" y="513" type="line"/>
      <point x="270" y="513" type="line"/>
    </contour>
    <contour>
      <point x="285" y="207" type="curve" smooth="yes"/>
      <point x="172" y="207"/>
      <point x="94" y="277"/>
      <point x="48" y="354" type="curve"/>
      <point x="-7" y="313" type="line"/>
      <point x="51" y="231" smooth="yes"/>
      <point x="141" y="149" smooth="yes"/>
      <point x="284" y="149" type="curve" smooth="yes"/>
      <point x="460" y="149" smooth="yes"/>
      <point x="487" y="239" smooth="yes"/>
      <point x="487" y="335" type="curve" smooth="yes"/>
      <point x="487" y="415"/>
      <point x="461" y="488"/>
      <point x="276" y="488" type="curve"/>
      <point x="270" y="463" type="line"/>
      <point x="407" y="463" smooth="yes"/>
      <point x="417" y="402" smooth="yes"/>
      <point x="417" y="335" type="curve" smooth="yes"/>
      <point x="417" y="268" smooth="yes"/>
      <point x="407" y="207" smooth="yes"/>
    </contour>
  </outline>
</glyph>
<glyph name="khadeva_viramadeva_radeva" format="1">
  <advance width="1051"/>
  <outline>
    <contour>
      <point x="866" y="123" type="line"/>
      <point x="128" y="-93" type="line"/>
      <point x="148" y="-158" type="line"/>
      <point x="866" y="67" type="line"/>
    </contour>
    <contour>
      <point x="901" y="110" type="line"/>
      <point x="666" y="45" type="line"/>
      <point x="556" y="30" type="line"/>
      <point x="261" y="30"/>
      <point x="155" y="316"/>
      <point x="143" y="502" type="curve"/>
      <point x="83" y="502" type="line"/>
      <point x="100" y="286"/>
      <point x="206" y="4"/>
      <point x="512" y="-14" type="curve"/>
    </contour>
    <contour>
      <point x="264" y="312" type="curve" smooth="yes"/>
      <point x="434" y="312" smooth="yes"/>
      <point x="455" y="408" smooth="yes"/>
      <point x="455" y="510" type="curve" smooth="yes"/>
      <point x="455" y="680" type="line"/>
      <point x="385" y="680" type="line"/>
      <point x="385" y="510" type="line" smooth="yes"/>
      <point x="385" y="441" smooth="yes"/>
      <point x="376" y="371" smooth="yes"/>
      <point x="265" y="371" type="curve" smooth="yes"/>
      <point x="201" y="371"/>
      <point x="169" y="425"/>
      <point x="153" y="502" type="curve"/>
      <point x="83" y="502" type="line"/>
      <point x="108" y="388" smooth="yes"/>
      <point x="159" y="312" smooth="yes"/>
    </contour>
    <contour>
      <point x="-10" y="680" type="line"/>
      <point x="560" y="680" type="line"/>
      <point x="560" y="730" type="line"/>
      <point x="-10" y="730" type="line"/>
    </contour>
    <contour>
      <point x="526" y="680" type="line"/>
      <point x="1061" y="680" type="line"/>
      <point x="1061" y="730" type="line"/>
      <point x="526" y="730" type="line"/>
    </contour>
    <contour>
      <point x="866" y="0" type="line"/>
      <point x="936" y="0" type="line"/>
      <point x="936" y="680" type="line"/>
      <point x="866" y="680" type="line"/>
    </contour>
    <contour>
      <point x="830" y="554" type="line"/>
      <point x="800" y="566" smooth="yes"/>
      <point x="768" y="572" smooth="yes"/>
      <point x="731" y="572" type="curve" smooth="yes"/>
      <point x="570" y="572" smooth="yes"/>
      <point x="550" y="485" smooth="yes"/>
      <point x="550" y="396" type="curve" smooth="yes"/>
      <point x="550" y="304" smooth="yes"/>
      <point x="570" y="215" smooth="yes"/>
      <point x="730" y="215" type="curve" smooth="yes"/>
      <point x="805" y="215"/>
      <point x="861" y="232"/>
      <point x="901" y="263" type="curve"/>
      <point x="901" y="326" type="line"/>
      <point x="871" y="296" smooth="yes"/>
      <point x="815" y="271" smooth="yes"/>
      <point x="740" y="271" type="curve" smooth="yes"/>
      <point x="631" y="271" smooth="yes"/>
      <point x="620" y="328" smooth="yes"/>
      <point x="620" y="394" type="curve" smooth="yes"/>
      <point x="620" y="459" smooth="yes"/>
      <point x="631" y="516" smooth="yes"/>
      <point x="743" y="516" type="curve" smooth="yes"/>
      <point x="770" y="516"/>
      <point x="795" y="511"/>
      <point x="818" y="501" type="curve"/>
    </contour>
  </outline>
</glyph>
<glyph name="sa_virama_ta_virama_radeva" format="1">
  <advance width="1155"/>
  <outline>
    <contour>
      <point x="550" y="680" type="line"/>
      <point x="748" y="680" type="line"/>
      <point x="748" y="730" type="line"/>
      <point x="550" y="730" type="line"/>
    </contour>
    <contour>
      <point x="278" y="292" type="line"/>
      <point x="673" y="292" type="line"/>
      <point x="673" y="342" type="line"/>
      <point x="278" y="342" type="line"/>
    </contour>
    <component  base="radeva"/>
    <component  base="tadeva_viramadeva_radeva" xOffset="500"/>
  </outline>
</glyph>
<glyph name="sadeva_viramadeva" format="1">
  <advance width="623"/>
  <outline>
    <contour>
      <point x="550" y="680" type="line"/>
      <point x="748" y="680" type="line"/>
      <point x="748" y="730" type="line"/>
      <point x="550" y="730" type="line"/>
    </contour>
    <contour>
      <point x="278" y="292" type="line"/>
      <point x="773" y="292" type="line"/>
      <point x="773" y="342" type="line"/>
      <point x="278" y="342" type="line"/>
    </contour>
    <component  base="radeva"/>
  </outline>
</glyph>
<glyph name="sevencombiningdigitdeva" format="1">
  <advance width="0"/>
  <outline>
    <contour>
      <point x="-186" y="1120" type="line"/>
      <point x="-221" y="1074" smooth="yes"/>
      <point x="-233" y="1024" smooth="yes"/>
      <point x="-233" y="976" type="curve" smooth="yes"/>
      <point x="-233" y="886" smooth="yes"/>
      <point x="-207" y="848" smooth="yes"/>
      <point x="-154" y="848" type="curve" smooth="yes"/>
      <point x="-112" y="848" smooth="yes"/>
      <point x="-73" y="893" smooth="yes"/>
      <point x="-73" y="968" type="curve" smooth="yes"/>
      <point x="-73" y="1014" smooth="yes"/>
      <point x="-80" y="1040" smooth="yes"/>
      <point x="-110" y="1040" type="curve" smooth="yes"/>
      <point x="-131" y="1040" smooth="yes"/>
      <point x="-137" y="1025" smooth="yes"/>
      <point x="-137" y="1005" type="curve" smooth="yes"/>
      <point x="-137" y="981"/>
      <point x="-127" y="953"/>
      <point x="-101" y="943" type="curve"/>
      <point x="-116" y="910" type="line"/>
      <point x="-160" y="925" smooth="yes"/>
      <point x="-182" y="962" smooth="yes"/>
      <point x="-182" y="1005" type="curve" smooth="yes"/>
      <point x="-182" y="1044" smooth="yes"/>
      <point x="-161" y="1075" smooth="yes"/>
      <point x="-111" y="1075" type="curve" smooth="yes"/>
      <point x="-54" y="1075" smooth="yes"/>
      <point x="-29" y="1033" smooth="yes"/>
      <point x="-29" y="969" type="curve" smooth="yes"/>
      <point x="-29" y="875" smooth="yes"/>
      <point x="-84" y="809" smooth="yes"/>
      <point x="-157" y="809" type="curve" smooth="yes"/>
      <point x="-239" y="809" smooth="yes"/>
      <point x="-283" y="867" smooth="yes"/>
      <point x="-283" y="976" type="curve" smooth="yes"/>
      <point x="-283" y="1040"/>
      <point x="-268" y="1096"/>
      <point x="-225" y="1149" type="curve"/>
    </contour>
  </outline>
</glyph>
<glyph name="ssadeva_viramadeva_ttadeva" format="1">
  <advance width="680"/>
  <outline>
    <contour>
      <point x="483" y="365" type="line"/>
      <point x="526" y="390" type="line"/>
      <point x="171" y="694" type="line"/>
      <point x="128" y="669" type="line"/>
    </contour>
    <contour>
      <point x="275" y="384" type="line"/>
      <point x="166" y="384" smooth="yes"/>
      <point x="158" y="454" smooth="yes"/>
      <point x="158" y="523" type="curve" smooth="yes"/>
      <point x="158" y="680" type="line"/>
      <point x="88" y="680" type="line"/>
      <point x="88" y="523" type="line" smooth="yes"/>
      <point x="88" y="434"/>
      <point x="107" y="349"/>
      <point x="275" y="349" type="curve"/>
    </contour>
    <contour>
      <point x="495" y="334" type="line"/>
      <point x="565" y="334" type="line"/>
      <point x="565" y="680" type="line"/>
      <point x="495" y="680" type="line"/>
    </contour>
    <contour>
      <point x="-10" y="680" type="line"/>
      <point x="690" y="680" type="line"/>
      <point x="690" y="730" type="line"/>
      <point x="-10" y="730" type="line"/>
    </contour>
    <contour>
      <point x="275" y="334" type="line"/>
      <point x="495" y="334" type="line"/>
      <point x="495" y="384" type="line"/>
      <point x="275" y="384" type="line"/>
    </contour>
    <contour>
      <point x="478" y="680" type="line"/>
      <point x="603" y="680" type="line"/>
      <point x="603" y="730" type="line"/>
      <point x="478" y="730" type="line"/>
    </contour>
    <contour>
      <point x="512" y="194" type="line"/>
      <point x="505" y="110" smooth="yes"/>
      <point x="464" y="44" smooth="yes"/>
      <point x="327" y="44" type="curve" smooth="yes"/>
      <point x="201" y="44" smooth="yes"/>
      <point x="149" y="87" smooth="yes"/>
      <point x="149" y="188" type="curve" smooth="yes"/>
      <point x="149" y="303" smooth="yes"/>
      <point x="201" y="334" smooth="yes"/>
      <point x="338" y="334" type="curve" smooth="yes"/>
      <point x="337" y="367" type="line" smooth="yes"/>
      <point x="151" y="367" smooth="yes"/>
      <point x="79" y="317" smooth="yes"/>
      <point x="79" y="188" type="curve" smooth="yes"/>
      <point x="79" y="48" smooth="yes"/>
      <point x="157" y="-15" smooth="yes"/>
      <point x="327" y="-15" type="curve" smooth="yes"/>
      <point x="511" y="-15"/>
      <point x="559" y="70"/>
      <point x="571" y="194" type="curve"/>
    </contour>
  </outline>
</glyph>
<glyph name="thadeva_viramadeva" format="1">
  <advance width="400"/>
  <outline>
    <contour>
      <point x="301" y="109" type="curve" smooth="yes"/>
      <point x="411" y="109"/>
      <point x="493" y="156"/>
      <point x="550" y="230" type="curve"/>
      <point x="550" y="295" type="line"/>
      <point x="504" y="229" smooth="yes"/>
      <point x="424" y="167" smooth="yes"/>
      <point x="301" y="167" type="curve" smooth="yes"/>
      <point x="162" y="167"/>
      <point x="100" y="249"/>
      <point x="100" y="384" type="curve"/>
      <point x="30" y="384" type="line"/>
      <point x="30" y="207" smooth="yes"/>
      <point x="124" y="109" smooth="yes"/>
    </contour>
    <contour>
      <point x="410" y="680" type="line"/>
      <point x="525" y="680" type="line"/>
      <point x="525" y="730" type="line"/>
      <point x="410" y="730" type="line"/>
    </contour>
    <contour>
      <point x="49" y="334" type="line"/>
      <point x="86" y="334" type="line" smooth="yes"/>
      <point x="261" y="334" smooth="yes"/>
      <point x="360" y="429" smooth="yes"/>
      <point x="360" y="598" type="curve" smooth="yes"/>
      <point x="360" y="690" smooth="yes"/>
      <point x="300" y="744" smooth="yes"/>
      <point x="198" y="744" type="curve" smooth="yes"/>
      <point x="100" y="744" smooth="yes"/>
      <point x="41" y="697" smooth="yes"/>
      <point x="41" y="619" type="curve" smooth="yes"/>
      <point x="41" y="551"/>
      <point x="70" y="511"/>
      <point x="127" y="485" type="curve"/>
      <point x="161" y="529" type="line"/>
      <point x="124" y="548" smooth="yes"/>
      <point x="109" y="574" smooth="yes"/>
      <point x="109" y="618" type="curve" smooth="yes"/>
      <point x="109" y="666" smooth="yes"/>
      <point x="142" y="694" smooth="yes"/>
      <point x="198" y="694" type="curve" smooth="yes"/>
      <point x="258" y="694" smooth="yes"/>
      <point x="292" y="659" smooth="yes"/>
      <point x="292" y="598" type="curve" smooth="yes"/>
      <point x="292" y="477" smooth="yes"/>
      <point x="250" y="384" smooth="yes"/>
      <point x="86" y="384" type="curve" smooth="yes"/>
      <point x="30" y="384" type="line"/>
    </contour>
  </outline>
</glyph>
<glyph name="ttadeva_viramadeva_tthadeva" format="1">
  <advance width="610"/>
  <outline>
    <contour>
      <point x="305" y="-159" type="line"/>
      <point x="171" y="-159" smooth="yes"/>
      <point x="116" y="-113" smooth="yes"/>
      <point x="116" y="-12" type="curve" smooth="yes"/>
      <point x="116" y="65" smooth="yes"/>
      <point x="166" y="89" smooth="yes"/>
      <point x="295" y="89" type="curve" smooth="yes"/>
      <point x="396" y="89" type="line"/>
      <point x="396" y="261" type="line"/>
      <point x="326" y="261" type="line"/>
      <point x="326" y="146" type="line"/>
      <point x="294" y="146" type="line" smooth="yes"/>
      <point x="116" y="146" smooth="yes"/>
      <point x="46" y="101" smooth="yes"/>
      <point x="46" y="-12" type="curve" smooth="yes"/>
      <point x="46" y="-152"/>
      <point x="128" y="-215"/>
      <point x="305" y="-215" type="curve"/>
    </contour>
    <contour>
      <point x="305" y="-215" type="line"/>
      <point x="489" y="-215" smooth="yes"/>
      <point x="573" y="-152" smooth="yes"/>
      <point x="573" y="-12" type="curve" smooth="yes"/>
      <point x="573" y="101"/>
      <point x="507" y="146"/>
      <point x="337" y="146" type="curve"/>
      <point x="337" y="89" type="line"/>
      <point x="449" y="89" smooth="yes"/>
      <point x="503" y="65" smooth="yes"/>
      <point x="503" y="-12" type="curve" smooth="yes"/>
      <point x="503" y="-113"/>
      <point x="446" y="-159"/>
      <point x="305" y="-159" type="curve"/>
    </contour>
    <contour>
      <point x="484" y="395" type="line"/>
      <point x="477" y="333" smooth="yes"/>
      <point x="436" y="289" smooth="yes"/>
      <point x="299" y="289" type="curve" smooth="yes"/>
      <point x="173" y="289" smooth="yes"/>
      <point x="121" y="335" smooth="yes"/>
      <point x="121" y="436" type="curve" smooth="yes"/>
      <point x="121" y="513" smooth="yes"/>
      <point x="173" y="537" smooth="yes"/>
      <point x="310" y="537" type="curve" smooth="yes"/>
      <point x="495" y="537" type="line"/>
      <point x="495" y="730" type="line"/>
      <point x="-10" y="730" type="line"/>
      <point x="-10" y="680" type="line"/>
      <point x="425" y="680" type="line"/>
      <point x="425" y="594" type="line"/>
      <point x="309" y="594" type="line" smooth="yes"/>
      <point x="123" y="594" smooth="yes"/>
      <point x="51" y="549" smooth="yes"/>
      <point x="51" y="436" type="curve" smooth="yes"/>
      <point x="51" y="296" smooth="yes"/>
      <point x="129" y="233" smooth="yes"/>
      <point x="299" y="233" type="curve" smooth="yes"/>
      <point x="483" y="233"/>
      <point x="531" y="299"/>
      <point x="543" y="395" type="curve"/>
    </contour>
    <contour>
      <point x="495" y="680" type="line"/>
      <point x="620" y="680" type="line"/>
      <point x="620" y="730" type="line"/>
      <point x="495" y="730" type="line"/>
    </contour>
  </outline>
</glyph>
